<svg xmlns="http://www.w3.org/2000/svg" version="1.1" xmlns:xlink="http://www.w3.org/1999/xlink" xmlns:svgjs="http://svgjs.dev/svgjs" width="2000" height="1250" viewBox="0 0 2000 1250"><g transform="matrix(1,0,0,1,0,0)"><svg viewBox="0 0 576 360" data-background-color="#000000" preserveAspectRatio="xMidYMid meet" height="1250" width="2000" xmlns="http://www.w3.org/2000/svg" xmlns:xlink="http://www.w3.org/1999/xlink"><g id="tight-bounds" transform="matrix(1,0,0,1,0,0)"><svg viewBox="0 0 576 360" height="360" width="576"><rect width="576" height="360" fill="url(#022bb40e-f70c-46b5-809d-001f9d16bc27)" mask="url(#9c2b367e-d25b-4cd9-9f5a-9fed9f7cddf8)" data-fill-palette-color="tertiary"></rect><g><svg></svg></g><g><svg viewBox="0 0 576 360" height="360" width="576"><g><path d="M132.115 90l155.885-90 155.885 90v180l-155.885 90-155.885-90z" fill="url(#022bb40e-f70c-46b5-809d-001f9d16bc27)" fill-rule="nonzero" stroke="none" stroke-width="1" stroke-linecap="butt" stroke-linejoin="miter" stroke-miterlimit="10" stroke-dasharray="" stroke-dashoffset="0" font-family="none" font-weight="none" font-size="none" text-anchor="none" style="mix-blend-mode: normal" data-fill-palette-color="tertiary"></path></g><g transform="matrix(1,0,0,1,201.73705583756345,99)"><svg viewBox="0 0 172.5258883248731 162" height="162" width="172.5258883248731"><g><svg viewBox="0 0 172.5258883248731 162" height="162" width="172.5258883248731"><g><svg viewBox="0 0 172.5258883248731 162" height="162" width="172.5258883248731"><g id="textblocktransform"><svg viewBox="0 0 172.5258883248731 162" height="162" width="172.5258883248731" id="textblock"><g><svg viewBox="0 0 172.5258883248731 162" height="162" width="172.5258883248731"><g transform="matrix(1,0,0,1,0,0)"><svg width="172.5258883248731" viewBox="0.28 -24.63 26.22 24.63" height="162" data-palette-color="url(#3c145f1c-bf88-49e3-b7dd-3016cb554b64)"></svg></g></svg></g></svg></g></svg></g><g></g></svg></g></svg></g></svg></g><defs></defs><mask id="9c2b367e-d25b-4cd9-9f5a-9fed9f7cddf8"><g id="SvgjsG1011"><svg viewBox="0 0 576 360" height="360" width="576"><g><svg></svg></g><g><svg viewBox="0 0 576 360" height="360" width="576"><g><path d="M132.115 90l155.885-90 155.885 90v180l-155.885 90-155.885-90z" fill="white" fill-rule="nonzero" stroke="none" stroke-width="1" stroke-linecap="butt" stroke-linejoin="miter" stroke-miterlimit="10" stroke-dasharray="" stroke-dashoffset="0" font-family="none" font-weight="none" font-size="none" text-anchor="none" style="mix-blend-mode: normal"></path></g><g transform="matrix(1,0,0,1,201.73705583756345,99)"><svg viewBox="0 0 172.5258883248731 162" height="162" width="172.5258883248731"><g><svg viewBox="0 0 172.5258883248731 162" height="162" width="172.5258883248731"><g><svg viewBox="0 0 172.5258883248731 162" height="162" width="172.5258883248731"><g id="SvgjsG1010"><svg viewBox="0 0 172.5258883248731 162" height="162" width="172.5258883248731" id="SvgjsSvg1009"><g><svg viewBox="0 0 172.5258883248731 162" height="162" width="172.5258883248731"><g transform="matrix(1,0,0,1,0,0)"><svg width="172.5258883248731" viewBox="0.28 -24.63 26.22 24.63" height="162" data-palette-color="url(#3c145f1c-bf88-49e3-b7dd-3016cb554b64)"></svg></g></svg></g></svg></g></svg></g><g></g></svg></g></svg></g></svg></g><defs><mask></mask></defs></svg></g></mask><linearGradient x1="0" x2="1" y1="0.5" y2="0.5" id="022bb40e-f70c-46b5-809d-001f9d16bc27"><stop stop-color="#f00b51" offset="0"></stop><stop stop-color="#730062" offset="1"></stop></linearGradient><mask id="6197d67b-edff-4a49-968a-7ac24fd11e17"><g id="SvgjsG1018"><svg viewBox="0 0 576 360" height="360" width="576"><g><svg></svg></g><g><svg viewBox="0 0 576 360" height="360" width="576"><g><path d="M132.115 90l155.885-90 155.885 90v180l-155.885 90-155.885-90z" fill="black" fill-rule="nonzero" stroke="none" stroke-width="1" stroke-linecap="butt" stroke-linejoin="miter" stroke-miterlimit="10" stroke-dasharray="" stroke-dashoffset="0" font-family="none" font-weight="none" font-size="none" text-anchor="none" style="mix-blend-mode: normal"></path></g><g transform="matrix(1,0,0,1,201.73705583756345,99)"><svg viewBox="0 0 172.5258883248731 162" height="162" width="172.5258883248731"><g><svg viewBox="0 0 172.5258883248731 162" height="162" width="172.5258883248731"><g><svg viewBox="0 0 172.5258883248731 162" height="162" width="172.5258883248731"><g id="SvgjsG1017"><svg viewBox="0 0 172.5258883248731 162" height="162" width="172.5258883248731" id="SvgjsSvg1016"><g><svg viewBox="0 0 172.5258883248731 162" height="162" width="172.5258883248731"><g transform="matrix(1,0,0,1,0,0)"><svg width="172.5258883248731" viewBox="0.28 -24.63 26.22 24.63" height="162" data-palette-color="url(#3c145f1c-bf88-49e3-b7dd-3016cb554b64)"><path d="M8.8 0L0.28-24.63 9.55-24.63 13.58-6.83 13.23-6.83 17.25-24.63 26.5-24.63 17.98 0 8.8 0Z" opacity="1" transform="matrix(1,0,0,1,0,0)" fill="white" class="wordmark-text-0" id="SvgjsPath1015"></path></svg></g></svg></g></svg></g></svg></g><g></g></svg></g></svg></g></svg></g><defs><mask></mask></defs><mask><g id="SvgjsG1014"><svg viewBox="0 0 576 360" height="360" width="576"><g><svg></svg></g><g><svg viewBox="0 0 576 360" height="360" width="576"><g></g><g transform="matrix(1,0,0,1,201.73705583756345,99)"><svg viewBox="0 0 172.5258883248731 162" height="162" width="172.5258883248731"><g><svg viewBox="0 0 172.5258883248731 162" height="162" width="172.5258883248731"><g><svg viewBox="0 0 172.5258883248731 162" height="162" width="172.5258883248731"><g id="SvgjsG1013"><svg viewBox="0 0 172.5258883248731 162" height="162" width="172.5258883248731" id="SvgjsSvg1012"><g><svg viewBox="0 0 172.5258883248731 162" height="162" width="172.5258883248731"><g transform="matrix(1,0,0,1,0,0)"><svg width="172.5258883248731" viewBox="0.28 -24.63 26.22 24.63" height="162" data-palette-color="url(#3c145f1c-bf88-49e3-b7dd-3016cb554b64)"></svg></g></svg></g></svg></g></svg></g><g></g></svg></g></svg></g></svg></g><defs><mask></mask></defs></svg></g></mask></svg></g></mask><linearGradient x1="0.054" x2="0.941" y1="0.5" y2="0.5" id="3c145f1c-bf88-49e3-b7dd-3016cb554b64"><stop stop-color="#0f3054" offset="0"></stop><stop stop-color="#3b8dcb" offset="0.498"></stop><stop stop-color="#0f3054" offset="1"></stop></linearGradient><rect width="576" height="360" fill="url(#3c145f1c-bf88-49e3-b7dd-3016cb554b64)" mask="url(#6197d67b-edff-4a49-968a-7ac24fd11e17)" data-fill-palette-color="quaternary"></rect></svg><rect width="576" height="360" fill="none" stroke="none" visibility="hidden"></rect></g></svg></g></svg>